<svg width="13" height="14" viewBox="0 0 13 14" fill="none" xmlns="http://www.w3.org/2000/svg">
<path d="M1 12.004L7.29099e-07 12.004C7.67502e-07 12.5563 0.447716 13.004 1 13.004L1 12.004ZM1 9.17556L0.292894 8.46845C0.105357 8.65599 5.13981e-07 8.91035 5.32423e-07 9.17556L1 9.17556ZM3.82843 12.004L3.82843 13.004C4.09364 13.004 4.34799 12.8986 4.53553 12.7111L3.82843 12.004ZM2 12.004L2 9.17556L5.32423e-07 9.17556L7.29099e-07 12.004L2 12.004ZM1.70711 9.88267L8.65685 2.93292L7.24264 1.51871L0.292894 8.46845L1.70711 9.88267ZM8.65685 2.93292L10.0711 4.34717L11.4853 2.93296L10.0711 1.51871L8.65685 2.93292ZM10.0711 4.34717L3.12132 11.2969L4.53553 12.7111L11.4853 5.76139L10.0711 4.34717ZM3.82843 11.004L1 11.004L1 13.004L3.82843 13.004L3.82843 11.004ZM10.0711 4.34717L11.4853 5.76139C12.2664 4.98035 12.2664 3.71401 11.4853 2.93296L10.0711 4.34717ZM8.65685 2.93292L8.65685 2.93292L10.0711 1.51871C9.29002 0.737659 8.02369 0.737657 7.24264 1.51871L8.65685 2.93292Z" fill="#333333"/>
</svg>
