<svg width="40" height="41" viewBox="0 0 40 41" fill="none" xmlns="http://www.w3.org/2000/svg">
<path opacity="0.1" fill-rule="evenodd" clip-rule="evenodd" d="M3 8.5L13 14L28 12L29 9.5C28.3333 8.66667 26.2 7 23 7C21.278 7 20.2973 7.37066 19.1803 7.79285C17.7027 8.35134 15.9865 9 12 9C6.4 9 3.66667 8.66667 3 8.5ZM13 25C13 27.7614 10.7614 30 8 30C5.23858 30 3 27.7614 3 25C3 22.2386 5.23858 20 8 20C10.7614 20 13 22.2386 13 25ZM39 25C39 27.7614 36.7614 30 34 30C31.2386 30 29 27.7614 29 25C29 22.2386 31.2386 20 34 20C36.7614 20 39 22.2386 39 25Z" fill="#2077CF"/>
<path fill-rule="evenodd" clip-rule="evenodd" d="M22.0001 1C21.4479 1 21.0001 1.44772 21.0001 2C21.0001 2.55228 21.4479 3 22.0001 3H25.1578C26.0756 3 26.8755 3.6246 27.0981 4.51493L27.8237 7.41727C26.853 6.56826 25.4414 6 23.5001 6C20.8875 6 19.4408 6.35496 18.188 6.78962C17.9224 6.88177 17.6756 6.97311 17.4354 7.06201L17.4354 7.06204L17.4353 7.06207L17.4352 7.0621L17.4351 7.06213L17.435 7.06219C16.5684 7.38294 15.7874 7.67202 14.515 7.8538C12.344 8.16394 9.04121 7.96778 6.20149 7.67426C4.79843 7.52923 3.53679 7.36371 2.62587 7.23442C2.17067 7.16981 1.80371 7.11433 1.55122 7.07512C1.42498 7.05552 1.32741 7.03999 1.26178 7.02943L1.18771 7.01741L1.16943 7.01441L1.16511 7.0137L1.16417 7.01354L1.16405 7.01352L1.16401 7.01352C0.675948 6.93245 0.201968 7.22046 0.0490886 7.691C-0.103796 8.16155 0.110405 8.67316 0.552936 8.89443L12.0001 14.618V14.6201V14.6265V14.6329V14.6394V14.6459V14.6524V14.6589V14.6654V14.672V14.6786V14.6852V14.6918V14.6985V14.7052V14.7119V14.7187V14.7254V14.7322V14.739V14.7459V14.7527V14.7596V14.7665V14.7734V14.7804V14.7874V14.7944V14.8014V14.8085V14.8155V14.8226V14.8297V14.8369V14.844V14.8512V14.8584V14.8656V14.8729V14.8802V14.8875V14.8948V14.9021V14.9095V14.9168V14.9242V14.9316V14.9391V14.9465V14.954V14.9615V14.9691V14.9766V14.9842V14.9917V14.9993V15.007V15.0146V15.0223V15.0299V15.0377V15.0454V15.0531V15.0609V15.0686V15.0764V15.0843V15.0921V15.0999V15.1078V15.1157V15.1236V15.1315V15.1395V15.1474V15.1554V15.1634V15.1714V15.1795V15.1875V15.1956V15.2036V15.2117V15.2199V15.228V15.2361V15.2443V15.2525V15.2607V15.2689V15.2771V15.2854V15.2936V15.3019V15.3102V15.3185V15.3269V15.3352V15.3435V15.3519V15.3603V15.3687V15.3771V15.3855V15.394V15.4024V15.4109V15.4194V15.4279V15.4364V15.4449V15.4535V15.462V15.4706V15.4792V15.4878V15.4964V15.505V15.5137V15.5223V15.531V15.5396V15.5483V15.557V15.5657V15.5745V15.5832V15.5919V15.6007V15.6095V15.6182V15.627V15.6358V15.6447V15.6535V15.6623V15.6712V15.68V15.6889V15.6978V15.7067V15.7156V15.7245V15.7334V15.7423V15.7513V15.7602V15.7692V15.7782V15.7871V15.7961V15.8051V15.8141V15.8231V15.8322V15.8412V15.8502V15.8593V15.8684V15.8774V15.8865V15.8956V15.9047V15.9138V15.9229V15.932V15.9411V15.9503V15.9594V15.9685V15.9777V15.9869V15.996V16.0052V16.0144V16.0236V16.0328V16.042V16.0512V16.0604V16.0696V16.0788V16.088V16.0973V16.1065V16.1158V16.125V16.1343V16.1435V16.1528V16.1621V16.1713V16.1806V16.1899V16.1992V16.2085V16.2178V16.2271V16.2364V16.2457V16.255V16.2643V16.2737V16.283V16.2923V16.3016V16.311V16.3203V16.3297V16.339V16.3483V16.3577V16.367V16.3764V16.3857V16.3951V16.4045V16.4138V16.4232V16.4325V16.4419V16.4513V16.4606V16.47V16.4794V16.4888V16.4981V16.5075V16.5169V16.5263V16.5356V16.545V16.5544V16.5638V16.5731V16.5825V16.5919V16.6012V16.6106V16.62V16.6294V16.6387V16.6481V16.6575V16.6668V16.6762V16.6856V16.6949V16.7043V16.7137V16.723V16.7324V16.7417V16.7511V16.7604V16.7698V16.7791V16.7885V16.7978V16.8072V16.8165V16.8258V16.8352V16.8445V16.8538V16.8631V16.8724V16.8817V16.891V16.9004V16.9097V16.9189V16.9282V16.9375V16.9468V16.9561V16.9654V16.9746V16.9839V16.9931V17.0024V17.0116V17.0209V17.0301V17.0393V17.0486V17.0578V17.067V17.0762V17.0854V17.0946V17.1038V17.113V17.1221V17.1313V17.1405V17.1496V17.1588V17.1679V17.177V17.1862V17.1953V17.2044V17.2135V17.2226V17.2317V17.2408V17.2498V17.2589V17.2679V17.277V17.286V17.2951V17.3041V17.3131V17.3221V17.3311V17.3401V17.349V17.358V17.3669V17.3759V17.3848V17.3937V17.4027V17.4116V17.4204V17.4293V17.4382V17.4471V17.4559V17.4648V17.4736V17.4824V17.4912V17.5C12.0001 17.8568 12.1903 18.1866 12.4991 18.3654L12.9406 18.621L12.1025 19.2077C10.8256 17.8487 9.01201 17 7.00015 17C3.13416 17 0.000149224 20.134 0.000149224 24C0.000149224 27.866 3.13416 31 7.00015 31C10.8661 31 14.0001 27.866 14.0001 24C14.0001 22.8651 13.7301 21.7933 13.2507 20.8453L14.8494 19.7261L19.239 22.2675C21.2341 23.4225 23.7899 22.6565 24.8209 20.5946L27.8946 14.4472L29.019 12.1984L30.3492 17.5194C27.7976 18.5642 26.0001 21.0722 26.0001 24C26.0001 27.866 29.1342 31 33.0001 31C36.8661 31 40.0001 27.866 40.0001 24C40.0001 20.134 36.8661 17 33.0001 17C32.7604 17 32.5234 17.0121 32.2898 17.0356L31.7809 15H32.964C35.3437 15 36.8145 15.4047 38.3384 16.7497C38.7525 17.1152 39.3844 17.0758 39.7499 16.6617C40.1154 16.2477 40.076 15.6157 39.6619 15.2503C37.6601 13.4835 35.6566 13 32.964 13H31.2809L30.9871 11.8246C31.3036 11.9382 31.6446 12 32.0001 12H34.0001C34.5524 12 35.0001 11.5523 35.0001 11V7C35.0001 6.44772 34.5524 6 34.0001 6H32.0001C31.1187 6 30.3261 6.3801 29.7773 6.98533L29.0384 4.02986C28.5932 2.24919 26.9933 1 25.1578 1H22.0001ZM17.5736 17.8192L16.6564 18.4613L20.2411 20.5366C21.2386 21.1141 22.5165 20.7311 23.032 19.7002L26.1057 13.5528L26.5002 12.7638L14.0001 14.8471V14.8512V14.8584V14.8656V14.8729V14.8802V14.8875V14.8948V14.9021V14.9095V14.9168V14.9242V14.9316V14.9391V14.9465V14.954V14.9615V14.9691V14.9766V14.9842V14.9917V14.9993V15.007V15.0146V15.0223V15.0299V15.0377V15.0454V15.0531V15.0609V15.0686V15.0764V15.0843V15.0921V15.0999V15.1078V15.1157V15.1236V15.1315V15.1395V15.1474V15.1554V15.1634V15.1714V15.1795V15.1875V15.1956V15.2036V15.2117V15.2199V15.228V15.2361V15.2443V15.2525V15.2607V15.2689V15.2771V15.2854V15.2936V15.3019V15.3102V15.3185V15.3269V15.3352V15.3435V15.3519V15.3603V15.3687V15.3771V15.3855V15.394V15.4024V15.4109V15.4194V15.4279V15.4364V15.4449V15.4535V15.462V15.4706V15.4792V15.4878V15.4964V15.505V15.5137V15.5223V15.531V15.5396V15.5483V15.557V15.5657V15.5745V15.5832V15.5919V15.6007V15.6095V15.6182V15.627V15.6358V15.6447V15.6535V15.6623V15.6712V15.68V15.6889V15.6978V15.7067V15.7156V15.7245V15.7334V15.7423V15.7513V15.7602V15.7692V15.7782V15.7871V15.7961V15.8051V15.8141V15.8231V15.8322V15.8412V15.8502V15.8593V15.8684V15.8774V15.8865V15.8956V15.9047V15.9138V15.9229V15.932V15.9411V15.9503V15.9594V15.9685V15.9777V15.9869V15.996V16.0052V16.0144V16.0236V16.0328V16.042V16.0512V16.0604V16.0696V16.0788V16.088V16.0973V16.1065V16.1158V16.125V16.1343V16.1435V16.1528V16.1621V16.1713V16.1806V16.1899V16.1992V16.2085V16.2178V16.2271V16.2364V16.2457V16.255V16.2643V16.2737V16.283V16.2923V16.3016V16.311V16.3203V16.3297V16.339V16.3483V16.3577V16.367V16.3764V16.3857V16.3951V16.4045V16.4138V16.4232V16.4325V16.4419V16.4513V16.4606V16.47V16.4794V16.4888V16.4981V16.5075V16.5169V16.5263V16.5356V16.545V16.5544V16.5638V16.5731V16.5825V16.5919V16.6012V16.6106V16.62V16.6294V16.6387V16.6481V16.6575V16.6668V16.6762V16.6856V16.6949V16.7043V16.7137V16.723V16.7324V16.7417V16.7511V16.7604V16.7698V16.7791V16.7885V16.7978V16.8072V16.8165V16.8258V16.8352V16.8445V16.8538V16.8631V16.8724V16.8817V16.891V16.9004V16.9097V16.9189V16.9234L14.7476 17.3562L16.4267 16.1808C16.8791 15.8641 17.5027 15.9741 17.8194 16.4265C18.1361 16.879 18.0261 17.5025 17.5736 17.8192ZM7.00015 19C8.33287 19 9.54381 19.5214 10.4401 20.3714L7.84609 22.1872C7.58916 22.0671 7.30249 22 7.00015 22C5.89558 22 5.00015 22.8954 5.00015 24C5.00015 25.1046 5.89558 26 7.00015 26C8.10472 26 9.00015 25.1046 9.00015 24C9.00015 23.9413 8.99762 23.8833 8.99267 23.8259L11.5881 22.0091C11.8532 22.6192 12.0001 23.2924 12.0001 24C12.0001 26.7614 9.76157 29 7.00015 29C4.23873 29 2.00015 26.7614 2.00015 24C2.00015 21.2386 4.23873 19 7.00015 19ZM30.8415 19.4887C29.1608 20.2944 28.0001 22.0116 28.0001 24C28.0001 26.7614 30.2387 29 33.0001 29C35.7616 29 38.0001 26.7614 38.0001 24C38.0001 21.2386 35.7616 19 33.0001 19C32.9271 19 32.8544 19.0016 32.7821 19.0047L33.5501 22.0766C34.3872 22.3154 35.0001 23.0861 35.0001 24C35.0001 25.1046 34.1047 26 33.0001 26C31.8956 26 31.0001 25.1046 31.0001 24C31.0001 23.4356 31.2339 22.9258 31.6099 22.5622L30.8415 19.4887ZM6.70402 9.7339L13.1565 12.9601L27.457 10.5767C27.3753 10.1504 27.1683 9.62611 26.7569 9.16896C26.2226 8.57534 25.2582 8 23.5001 8C21.1128 8 19.8876 8.31692 18.8435 8.67913C18.6302 8.75314 18.4159 8.83279 18.1946 8.915L18.1945 8.91504C17.3032 9.24623 16.2996 9.61916 14.7978 9.8337C12.5561 10.1539 9.4003 9.9898 6.70402 9.7339ZM31.0001 9C31.0001 8.44772 31.4479 8 32.0001 8H33.0001V10H32.0001C31.4479 10 31.0001 9.55228 31.0001 9Z" fill="#2077CF"/>
<path fill-rule="evenodd" clip-rule="evenodd" d="M1 33H38.99C39.1271 33.0015 39.2628 33.0286 39.39 33.08C39.4256 33.0999 39.4591 33.1234 39.49 33.15C39.5727 33.18 39.6479 33.2277 39.7101 33.2899C39.7723 33.3521 39.82 33.4273 39.85 33.51C39.8766 33.5409 39.9001 33.5744 39.92 33.61C39.972 33.7317 39.9988 33.8627 39.9988 33.995C39.9988 34.1273 39.972 34.2583 39.92 34.38C39.878 34.4837 39.8169 34.5787 39.74 34.66C39.7264 34.6743 39.7161 34.6913 39.71 34.71L34.71 39.71C34.6167 39.8032 34.5061 39.8772 34.3843 39.9276C34.2625 39.9781 34.1319 40.0042 34 40.0042C33.8681 40.0042 33.7375 39.9781 33.6157 39.9276C33.4939 39.8772 33.3833 39.8032 33.29 39.71C33.1968 39.6167 33.1228 39.5061 33.0724 39.3843C33.0219 39.2625 32.9958 39.1319 32.9958 39C32.9958 38.8681 33.0219 38.7375 33.0724 38.6157C33.1228 38.4939 33.1968 38.3833 33.29 38.29L36.59 35H31.41L26.71 39.71C26.5217 39.8983 26.2663 40.0042 26 40.0042C25.7337 40.0042 25.4783 39.8983 25.29 39.71C25.1017 39.5217 24.9958 39.2663 24.9958 39C24.9958 38.7337 25.1017 38.4783 25.29 38.29L28.59 35H23.41L18.71 39.71C18.5217 39.8983 18.2663 40.0042 18 40.0042C17.7337 40.0042 17.4783 39.8983 17.29 39.71C17.1017 39.5217 16.9958 39.2663 16.9958 39C16.9958 38.7337 17.1017 38.4783 17.29 38.29L20.59 35H15.41L10.71 39.71C10.6167 39.8032 10.5061 39.8772 10.3843 39.9276C10.2625 39.9781 10.1319 40.0042 10 40.0042C9.86814 40.0042 9.73754 39.9781 9.61572 39.9276C9.4939 39.8772 9.38328 39.8032 9.29004 39.71C9.1968 39.6167 9.12285 39.5061 9.07239 39.3843C9.02193 39.2625 8.99585 39.1319 8.99585 39C8.99585 38.8681 9.02193 38.7375 9.07239 38.6157C9.12285 38.4939 9.1968 38.3833 9.29004 38.29L12.59 35H7.41003L2.70996 39.71C2.52166 39.8983 2.2663 40.0042 2 40.0042C1.7337 40.0042 1.47834 39.8983 1.29004 39.71C1.10174 39.5217 0.99585 39.2663 0.99585 39C0.99585 38.7337 1.10174 38.4783 1.29004 38.29L4.58997 35H1C0.734784 35 0.480383 34.8947 0.292847 34.7072C0.10531 34.5196 0 34.2652 0 34C0 33.7348 0.10531 33.4804 0.292847 33.2928C0.480383 33.1053 0.734784 33 1 33Z" fill="#2077CF"/>
</svg>
